<?xml version="1.0" encoding="UTF-8"?>
<!--
  HydroSpire – Consumer Building (Master SVG, 4× tile resolution)
  Vertikaler Hydroponik-Turm mit lila Wachstumslicht-Ringen

  Draw order within the tower's translate(0,11) decoration group:
    1. Back-arc peek segments (x=±22…±28, y=ring_y to ring_y−5√3≈ring_y−8.66)
       These extend from each sphere centre toward the back/upper direction.
    2. Pod spheres (cover the peek endpoint; front arc drawn on top will cover too)
    3. Front ring arcs (drawn on top of spheres – arc pierces each sphere centre)
    4. Apex

  All three sphere positions (right/left/front-centre) appear correctly threaded:
  – Side spheres (±28, ring_y): back peek visible upper-side, front arc lower-side.
  – Front sphere (0, ring_y+14): front arc enters from upper-right, exits upper-left.
-->
<svg xmlns="http://www.w3.org/2000/svg"
     viewBox="-128 -178 256 308"
     width="256" height="308">
  <defs>
    <!-- Foundation: gray-green concrete -->
    <linearGradient id="fR" gradientUnits="userSpaceOnUse" x1="128" y1="32" x2="0" y2="96">
      <stop offset="0%"   stop-color="#3e5c3a"/>
      <stop offset="100%" stop-color="#1e2e1a"/>
    </linearGradient>
    <linearGradient id="fL" gradientUnits="userSpaceOnUse" x1="-128" y1="32" x2="0" y2="96">
      <stop offset="0%"   stop-color="#141e12"/>
      <stop offset="100%" stop-color="#080c06"/>
    </linearGradient>
    <linearGradient id="fT" gradientUnits="userSpaceOnUse" x1="0" y1="-32" x2="0" y2="96">
      <stop offset="0%"   stop-color="#50703e"/>
      <stop offset="100%" stop-color="#30461e"/>
    </linearGradient>
    <!-- Base unit: gray-green equipment -->
    <linearGradient id="bR" gradientUnits="userSpaceOnUse" x1="88" y1="4" x2="0" y2="16">
      <stop offset="0%"   stop-color="#445e3c"/>
      <stop offset="60%"  stop-color="#2e4228"/>
      <stop offset="100%" stop-color="#1c2a18"/>
    </linearGradient>
    <linearGradient id="bL" gradientUnits="userSpaceOnUse" x1="-88" y1="4" x2="0" y2="16">
      <stop offset="0%"   stop-color="#161e12"/>
      <stop offset="100%" stop-color="#0a0e08"/>
    </linearGradient>
    <linearGradient id="bT" gradientUnits="userSpaceOnUse" x1="0" y1="-72" x2="0" y2="16">
      <stop offset="0%"   stop-color="#5e7a4a"/>
      <stop offset="100%" stop-color="#3c5030"/>
    </linearGradient>
    <!-- Tower: clean white-gray hydroponic column -->
    <linearGradient id="tR" gradientUnits="userSpaceOnUse" x1="22" y1="-53" x2="0" y2="-138">
      <stop offset="0%"   stop-color="#ccddc8"/>
      <stop offset="50%"  stop-color="#a0b89c"/>
      <stop offset="100%" stop-color="#708a6c"/>
    </linearGradient>
    <linearGradient id="tL" gradientUnits="userSpaceOnUse" x1="-22" y1="-53" x2="0" y2="-138">
      <stop offset="0%"   stop-color="#3a4838"/>
      <stop offset="100%" stop-color="#1e2a1c"/>
    </linearGradient>
    <linearGradient id="tTop" gradientUnits="userSpaceOnUse" x1="0" y1="-160" x2="0" y2="-138">
      <stop offset="0%"   stop-color="#ddeedd"/>
      <stop offset="100%" stop-color="#aaccaa"/>
    </linearGradient>
    <!-- Pod spheres – three fully-opaque gradients for right/front/left lighting -->
    <radialGradient id="podLit" cx="62%" cy="32%" r="62%">
      <stop offset="0%"   stop-color="#ccff88"/>
      <stop offset="45%"  stop-color="#3a9918"/>
      <stop offset="100%" stop-color="#0e3006"/>
    </radialGradient>
    <radialGradient id="podFront" cx="55%" cy="33%" r="62%">
      <stop offset="0%"   stop-color="#aaee55"/>
      <stop offset="45%"  stop-color="#2a7a12"/>
      <stop offset="100%" stop-color="#0a2404"/>
    </radialGradient>
    <radialGradient id="podDim" cx="38%" cy="35%" r="62%">
      <stop offset="0%"   stop-color="#559933"/>
      <stop offset="100%" stop-color="#0a1e04"/>
    </radialGradient>

    <filter id="glow" x="-60%" y="-60%" width="220%" height="220%">
      <feGaussianBlur stdDeviation="3" result="blur"/>
      <feMerge><feMergeNode in="blur"/><feMergeNode in="SourceGraphic"/></feMerge>
    </filter>
    <filter id="softglow" x="-80%" y="-80%" width="260%" height="260%">
      <feGaussianBlur stdDeviation="6" result="blur"/>
      <feMerge><feMergeNode in="blur"/><feMergeNode in="SourceGraphic"/></feMerge>
    </filter>
    <filter id="ringbloom" x="-100%" y="-100%" width="300%" height="300%">
      <feGaussianBlur stdDeviation="4" result="blur"/>
      <feMerge><feMergeNode in="blur"/><feMergeNode in="SourceGraphic"/></feMerge>
    </filter>
  </defs>

  <!-- ══ FOUNDATION hz 0→24 (±128) ══ -->
  <polygon points="-128,64 0,128 0,104 -128,40"  fill="url(#fL)" stroke="#3a6030" stroke-width="1.5"/>
  <polygon points="128,64 0,128 0,104 128,40"    fill="url(#fR)" stroke="#3a6030" stroke-width="1.5"/>
  <polygon points="0,-24 128,40 0,104 -128,40"   fill="url(#fT)" stroke="#3a6030" stroke-width="1.5"/>

  <g transform="translate(0, 36)">
  <!-- ══ BASE UNIT hz 24→56 (±88) ══ -->
  <polygon points="-88,4 0,48 0,16 -88,-28"   fill="url(#bL)" stroke="#2e4a28" stroke-width="1.5"/>
  <polygon points="88,4 0,48 0,16 88,-28"     fill="url(#bR)" stroke="#4a6a3a" stroke-width="1.5"/>
  <polygon points="0,-72 88,-28 0,16 -88,-28"  fill="url(#bT)" stroke="#4a6a3a" stroke-width="1.5"/>

  <!-- Base unit: ventilation slots on right face -->
  <line x1="88" y1="4"  x2="88"  y2="-28" stroke="#66aa44" stroke-width="2" opacity="0.55"/>
  <line x1="66" y1="7"   x2="22"  y2="29"  stroke="#4a7a30" stroke-width="1.5" opacity="0.5"/>
  <line x1="66" y1="-1"  x2="22"  y2="21"  stroke="#4a7a30" stroke-width="1.5" opacity="0.5"/>
  <line x1="66" y1="-9"  x2="22"  y2="13"  stroke="#4a7a30" stroke-width="1.5" opacity="0.5"/>

  <!-- Base unit: ventilation slots on left face (dim mirror) -->
  <line x1="-88" y1="4"  x2="-88"  y2="-28" stroke="#2a4a18" stroke-width="2" opacity="0.55"/>
  <line x1="-66" y1="7"   x2="-22"  y2="29"  stroke="#1e3a14" stroke-width="1.5" opacity="0.4"/>
  <line x1="-66" y1="-1"  x2="-22"  y2="21"  stroke="#1e3a14" stroke-width="1.5" opacity="0.4"/>
  <line x1="-66" y1="-9"  x2="-22"  y2="13"  stroke="#1e3a14" stroke-width="1.5" opacity="0.4"/>

  <!-- Base corners -->
  <circle cx="88"  cy="-28" r="5" fill="#55ee33" filter="url(#glow)"/>
  <circle cx="-88" cy="-28" r="5" fill="#55ee33" filter="url(#glow)" opacity="0.6"/>
  <circle cx="0"   cy="16"  r="5" fill="#55ee33" filter="url(#glow)"/>

  <!-- ══ TOWER hz 56→152 (±22) ══ -->
  <g transform="translate(0, 25)">
  <polygon points="-22,-53 0,-42 0,-138 -22,-149"  fill="url(#tL)" stroke="#2a3a28" stroke-width="1.2"/>
  <polygon points="22,-53 0,-42 0,-138 22,-149"    fill="url(#tR)" stroke="#7a9a78" stroke-width="1.2"/>
  <polygon points="0,-160 22,-149 0,-138 -22,-149"  fill="url(#tTop)" stroke="#7a9a78" stroke-width="1.2"/>
  <!-- Tower edge highlight (right) -->
  <line x1="22" y1="-53" x2="22" y2="-149" stroke="#bbddbb" stroke-width="2"   opacity="0.6"/>
  <line x1="22" y1="-53" x2="22" y2="-149" stroke="#ffffff" stroke-width="0.8" opacity="0.4"/>
  <!-- Tower edge shadow (left) -->
  <line x1="-22" y1="-53" x2="-22" y2="-149" stroke="#2a3a28" stroke-width="2" opacity="0.6"/>

  <!-- Decorations – single group, draw order: back-peeks → spheres → front-arcs → apex -->
  <g transform="translate(0, 11)">

  <!-- 1. Back-arc peek segments (x=±22…±28).
       At x=±22 on the back ellipse: y = ring_y − 5√3 ≈ ring_y − 8.66.
       sweep=0 (counterclockwise in SVG y-down) traces the back-upper path. -->
  <path d="M 28,-82   A 28,14 0 0,0 22,-90.66"   fill="none" stroke="#993acc" stroke-width="1.2" opacity="0.4"/>
  <path d="M -22,-90.66 A 28,14 0 0,0 -28,-82"   fill="none" stroke="#993acc" stroke-width="1.2" opacity="0.4"/>
  <path d="M 28,-102  A 28,14 0 0,0 22,-110.66"  fill="none" stroke="#993acc" stroke-width="1.2" opacity="0.4"/>
  <path d="M -22,-110.66 A 28,14 0 0,0 -28,-102" fill="none" stroke="#993acc" stroke-width="1.2" opacity="0.4"/>
  <path d="M 28,-122  A 28,14 0 0,0 22,-130.66"  fill="none" stroke="#993acc" stroke-width="1.2" opacity="0.4"/>
  <path d="M -22,-130.66 A 28,14 0 0,0 -28,-122" fill="none" stroke="#993acc" stroke-width="1.2" opacity="0.4"/>
  <path d="M 28,-142  A 28,14 0 0,0 22,-150.66"  fill="none" stroke="#aa44dd" stroke-width="1.5" opacity="0.45"/>
  <path d="M -22,-150.66 A 28,14 0 0,0 -28,-142" fill="none" stroke="#aa44dd" stroke-width="1.5" opacity="0.45"/>

  <!-- 2. Side pod spheres (right + left; arcs drawn on top will pierce them) -->
  <circle cx="28"  cy="-82"  r="6" fill="url(#podLit)"/>
  <circle cx="-28" cy="-82"  r="6" fill="url(#podDim)"/>
  <circle cx="28"  cy="-102" r="6" fill="url(#podLit)"/>
  <circle cx="-28" cy="-102" r="6" fill="url(#podDim)"/>
  <circle cx="28"  cy="-122" r="6" fill="url(#podLit)"/>
  <circle cx="-28" cy="-122" r="6" fill="url(#podDim)"/>
  <circle cx="28"  cy="-142" r="6" fill="url(#podLit)"/>
  <circle cx="-28" cy="-142" r="6" fill="url(#podDim)"/>

  <!-- 3. Front ring arcs (pierce side spheres; front-centre spheres drawn after) -->
  <path d="M 28,-82  A 28,14 0 0,1 -28,-82"  fill="none" stroke="#cc44ff" stroke-width="1.5" opacity="0.8"/>
  <path d="M 28,-82  A 28,14 0 0,1 -28,-82"  fill="none" stroke="#ee88ff" stroke-width="4"   opacity="0.25" filter="url(#ringbloom)"/>
  <path d="M 14,-82  A 14,7  0 0,1 -14,-82 Z" fill="#cc44ff" opacity="0.08"/>
  <path d="M 28,-102 A 28,14 0 0,1 -28,-102" fill="none" stroke="#cc44ff" stroke-width="1.5" opacity="0.8"/>
  <path d="M 28,-102 A 28,14 0 0,1 -28,-102" fill="none" stroke="#ee88ff" stroke-width="4"   opacity="0.25" filter="url(#ringbloom)"/>
  <path d="M 14,-102 A 14,7  0 0,1 -14,-102 Z" fill="#cc44ff" opacity="0.08"/>
  <path d="M 28,-122 A 28,14 0 0,1 -28,-122" fill="none" stroke="#cc44ff" stroke-width="1.5" opacity="0.8"/>
  <path d="M 28,-122 A 28,14 0 0,1 -28,-122" fill="none" stroke="#ee88ff" stroke-width="4"   opacity="0.25" filter="url(#ringbloom)"/>
  <path d="M 14,-122 A 14,7  0 0,1 -14,-122 Z" fill="#cc44ff" opacity="0.08"/>
  <path d="M 28,-142 A 28,14 0 0,1 -28,-142" fill="none" stroke="#dd66ff" stroke-width="2"   opacity="0.85"/>
  <path d="M 28,-142 A 28,14 0 0,1 -28,-142" fill="none" stroke="#ff99ff" stroke-width="6"   opacity="0.2"  filter="url(#ringbloom)"/>
  <path d="M 14,-142 A 14,7  0 0,1 -14,-142 Z" fill="#cc44ff" opacity="0.1"/>

  <!-- 3b. Front-centre spheres (drawn after arcs – sphere covers arc interior) -->
  <circle cx="0"   cy="-68"  r="6" fill="url(#podFront)"/>
  <circle cx="0"   cy="-88"  r="6" fill="url(#podFront)"/>
  <circle cx="0"   cy="-108" r="6" fill="url(#podFront)"/>
  <circle cx="0"   cy="-128" r="6" fill="url(#podFront)"/>

  <!-- 4. Apex spire -->
  <line x1="0" y1="-160" x2="0" y2="-176" stroke="#aaccaa" stroke-width="2.5"/>
  <circle cx="0" cy="-176" r="5"  fill="#88ffaa" opacity="0.9" filter="url(#glow)"/>
  <circle cx="0" cy="-176" r="10" fill="none"    stroke="#66ff88" stroke-width="1.5" opacity="0.45"/>
  </g>
  </g>
  </g>
</svg>
