<?xml version="1.0" encoding="UTF-8"?>
<!--
  Amber Stack T2 – Housing Tier 2 (Master SVG, 4× tile resolution)
  Tile: 64×32 px at 1× → SVG: 256×308 px (4×)
  Anchor: sprite.anchor.set(0.5, 178/308)
  Scale:  sprite.scale.set(64/256)

  Geometry:
    Foundation  hz 0→24    footprint ±128
    Block A     hz 24→88   footprint ±88   (lower residential, 2×2 windows)
    Block B     hz 88→148  footprint ±68   (middle residential, 2×1 windows)  ← new
    Block C     hz 148→190 footprint ±48   (upper residential, 1×1 windows)
-->
<svg xmlns="http://www.w3.org/2000/svg"
     viewBox="-128 -178 256 308"
     width="256" height="308">
  <defs>
    <!-- Foundation -->
    <linearGradient id="fR" gradientUnits="userSpaceOnUse" x1="128" y1="40" x2="0" y2="104">
      <stop offset="0%"   stop-color="#8a3818"/>
      <stop offset="100%" stop-color="#4a1c0c"/>
    </linearGradient>
    <linearGradient id="fL" gradientUnits="userSpaceOnUse" x1="-128" y1="40" x2="0" y2="104">
      <stop offset="0%"   stop-color="#2a1008"/>
      <stop offset="100%" stop-color="#100604"/>
    </linearGradient>
    <linearGradient id="fT" gradientUnits="userSpaceOnUse" x1="0" y1="-24" x2="0" y2="104">
      <stop offset="0%"   stop-color="#b04820"/>
      <stop offset="100%" stop-color="#7a3010"/>
    </linearGradient>

    <!-- Block A – lower residential (±88) -->
    <linearGradient id="aR" gradientUnits="userSpaceOnUse" x1="88" y1="16" x2="0" y2="-44">
      <stop offset="0%"   stop-color="#c05828"/>
      <stop offset="60%"  stop-color="#8c3a18"/>
      <stop offset="100%" stop-color="#5c2008"/>
    </linearGradient>
    <linearGradient id="aL" gradientUnits="userSpaceOnUse" x1="-88" y1="16" x2="0" y2="-44">
      <stop offset="0%"   stop-color="#3a1208"/>
      <stop offset="100%" stop-color="#120604"/>
    </linearGradient>
    <linearGradient id="aT" gradientUnits="userSpaceOnUse" x1="0" y1="-92" x2="0" y2="-4">
      <stop offset="0%"   stop-color="#e07030"/>
      <stop offset="100%" stop-color="#a84820"/>
    </linearGradient>

    <!-- Window – lit (right face) -->
    <radialGradient id="winW" cx="35%" cy="30%" r="70%">
      <stop offset="0%"   stop-color="#fff8c0"/>
      <stop offset="40%"  stop-color="#ffcc44"/>
      <stop offset="100%" stop-color="#aa6600"/>
    </radialGradient>
    <!-- Window – dim (left face) -->
    <radialGradient id="winD" cx="35%" cy="30%" r="70%">
      <stop offset="0%"   stop-color="#cc9922"/>
      <stop offset="100%" stop-color="#442200"/>
    </radialGradient>

    <filter id="glow" x="-60%" y="-60%" width="220%" height="220%">
      <feGaussianBlur stdDeviation="3" result="blur"/>
      <feMerge><feMergeNode in="blur"/><feMergeNode in="SourceGraphic"/></feMerge>
    </filter>
  </defs>

  <!-- ══ FOUNDATION  hz 0→24  (±128) ══ -->
  <polygon points="-128,64 0,128 0,104 -128,40" fill="url(#fL)" stroke="#cc5500" stroke-width="1.5"/>
  <polygon points="128,64 0,128 0,104 128,40"   fill="url(#fR)" stroke="#cc5500" stroke-width="1.5"/>
  <polygon points="0,-24 128,40 0,104 -128,40"  fill="url(#fT)" stroke="#cc5500" stroke-width="1.5"/>

  <!-- ══ BLOCK A  hz 24→88  (±88) ══ -->
  <g transform="translate(0, 24)">

  <!-- Left face -->
  <polygon points="-88,16 0,60 0,-4 -88,-48"  fill="url(#aL)" stroke="#cc5500" stroke-width="1.5"/>
  <line x1="-88" y1="16" x2="-88" y2="-48" stroke="#3a1208" stroke-width="2" opacity="0.5"/>

  <!-- Left face: bottom-outer window -->
  <polygon points="-78.1,13.45 -53.9,25.55 -53.9,8.55 -78.1,-3.55"  fill="url(#winD)" stroke="#884400" stroke-width="1" opacity="0.75"/>
  <line x1="-66"   y1="2.5"   x2="-66"   y2="19.5"  stroke="#aa6600" stroke-width="0.8" opacity="0.28"/>
  <line x1="-78.1" y1="4.95"  x2="-53.9" y2="17.05" stroke="#aa6600" stroke-width="0.8" opacity="0.28"/>

  <!-- Left face: bottom-inner window -->
  <polygon points="-34.1,35.45 -9.9,47.55 -9.9,30.55 -34.1,18.45"  fill="url(#winD)" stroke="#884400" stroke-width="1" opacity="0.75"/>
  <line x1="-22"   y1="24.5"  x2="-22"   y2="41.5"  stroke="#aa6600" stroke-width="0.8" opacity="0.28"/>
  <line x1="-34.1" y1="26.95" x2="-9.9"  y2="39.05" stroke="#aa6600" stroke-width="0.8" opacity="0.28"/>

  <!-- Left face: top-outer window -->
  <polygon points="-78.1,-18.55 -53.9,-6.45 -53.9,-23.45 -78.1,-35.55" fill="url(#winD)" stroke="#884400" stroke-width="1" opacity="0.75"/>
  <line x1="-66"   y1="-29.5"  x2="-66"   y2="-12.5"  stroke="#aa6600" stroke-width="0.8" opacity="0.28"/>
  <line x1="-78.1" y1="-27.05" x2="-53.9" y2="-14.95" stroke="#aa6600" stroke-width="0.8" opacity="0.28"/>

  <!-- Left face: top-inner window -->
  <polygon points="-34.1,3.45 -9.9,15.55 -9.9,-1.45 -34.1,-13.55"  fill="url(#winD)" stroke="#884400" stroke-width="1" opacity="0.75"/>
  <line x1="-22"   y1="-7.5"  x2="-22"   y2="9.5"  stroke="#aa6600" stroke-width="0.8" opacity="0.28"/>
  <line x1="-34.1" y1="-5.05" x2="-9.9"  y2="7.05" stroke="#aa6600" stroke-width="0.8" opacity="0.28"/>

  <!-- Right face -->
  <polygon points="88,16 0,60 0,-4 88,-48"    fill="url(#aR)" stroke="#cc5500" stroke-width="1.5"/>
  <line x1="88" y1="16" x2="88" y2="-48" stroke="#e07030" stroke-width="2" opacity="0.6"/>

  <!-- Right face: bottom-outer window -->
  <polygon points="78.1,13.45 53.9,25.55 53.9,8.55 78.1,-3.55"   fill="url(#winW)" stroke="#ffaa00" stroke-width="1.2"/>
  <line x1="66"   y1="2.5"   x2="66"   y2="19.5"  stroke="#fff8c0" stroke-width="0.8" opacity="0.55"/>
  <line x1="78.1" y1="4.95"  x2="53.9" y2="17.05" stroke="#fff8c0" stroke-width="0.8" opacity="0.55"/>

  <!-- Right face: bottom-inner window -->
  <polygon points="34.1,35.45 9.9,47.55 9.9,30.55 34.1,18.45"    fill="url(#winW)" stroke="#ffaa00" stroke-width="1.2"/>
  <line x1="22"   y1="24.5"  x2="22"   y2="41.5"  stroke="#fff8c0" stroke-width="0.8" opacity="0.55"/>
  <line x1="34.1" y1="26.95" x2="9.9"  y2="39.05" stroke="#fff8c0" stroke-width="0.8" opacity="0.55"/>

  <!-- Right face: top-outer window -->
  <polygon points="78.1,-18.55 53.9,-6.45 53.9,-23.45 78.1,-35.55"  fill="url(#winW)" stroke="#ffaa00" stroke-width="1.2"/>
  <line x1="66"   y1="-29.5"  x2="66"   y2="-12.5"  stroke="#fff8c0" stroke-width="0.8" opacity="0.55"/>
  <line x1="78.1" y1="-27.05" x2="53.9" y2="-14.95" stroke="#fff8c0" stroke-width="0.8" opacity="0.55"/>

  <!-- Right face: top-inner window -->
  <polygon points="34.1,3.45 9.9,15.55 9.9,-1.45 34.1,-13.55"     fill="url(#winW)" stroke="#ffaa00" stroke-width="1.2"/>
  <line x1="22"   y1="-7.5"  x2="22"   y2="9.5"  stroke="#fff8c0" stroke-width="0.8" opacity="0.55"/>
  <line x1="34.1" y1="-5.05" x2="9.9"  y2="7.05" stroke="#fff8c0" stroke-width="0.8" opacity="0.55"/>

  <!-- Block A top face -->
  <polygon points="0,-92 88,-48 0,-4 -88,-48" fill="url(#aT)" stroke="#cc5500" stroke-width="1.5"/>

  <!-- Panel dividers (cross) -->
  <line x1="44"  y1="-26" x2="44"  y2="38"  stroke="#ff8c00" stroke-width="2"   opacity="0.75"/>
  <line x1="-44" y1="-26" x2="-44" y2="38"  stroke="#aa4400" stroke-width="1.5" opacity="0.4"/>
  <line x1="88"  y1="-16" x2="0"   y2="28"  stroke="#ff8c00" stroke-width="2"   opacity="0.75"/>
  <line x1="0"   y1="28"  x2="-88" y2="-16" stroke="#aa4400" stroke-width="1.5" opacity="0.4"/>

  <!-- Terrace corner lights -->
  <circle cx="88"  cy="-48" r="5" fill="#ffaa00" filter="url(#glow)"/>
  <circle cx="-88" cy="-48" r="5" fill="#ff8c00" filter="url(#glow)" opacity="0.65"/>
  <circle cx="0"   cy="-4"  r="5" fill="#ffaa00" filter="url(#glow)"/>

  </g>

</svg>
