<?xml version="1.0" encoding="UTF-8"?>
<!--
  ResearchHub – Research Tier 2 (Master SVG, 4× tile resolution)
  Step 1: Foundation + Sockel (Base Unit), pixel-identisch zu T1.
  Turm und Dachaufbauten folgen in späteren Schritten.

  Geometrie (lokal innerhalb translate(0,36)):
    Sockel-Deckfläche: N(0,−72) E(88,−28) S(0,16) W(−88,−28)
    Sockel-Eckknoten: E(88,−28)  W(−88,−28)  S(0,16)
-->
<svg xmlns="http://www.w3.org/2000/svg"
     viewBox="-128 -178 256 308"
     width="256" height="308">
  <defs>
    <!-- Foundation: warm dark amber-brown -->
    <linearGradient id="fR" gradientUnits="userSpaceOnUse" x1="128" y1="40" x2="0" y2="104">
      <stop offset="0%"   stop-color="#4c3010"/>
      <stop offset="100%" stop-color="#241808"/>
    </linearGradient>
    <linearGradient id="fL" gradientUnits="userSpaceOnUse" x1="-128" y1="40" x2="0" y2="104">
      <stop offset="0%"   stop-color="#1c1208"/>
      <stop offset="100%" stop-color="#0e0a04"/>
    </linearGradient>
    <linearGradient id="fT" gradientUnits="userSpaceOnUse" x1="0" y1="-24" x2="0" y2="104">
      <stop offset="0%"   stop-color="#5c4018"/>
      <stop offset="100%" stop-color="#3a2a0e"/>
    </linearGradient>
    <!-- Sockel (Base Unit) -->
    <linearGradient id="bR" gradientUnits="userSpaceOnUse" x1="88" y1="4" x2="0" y2="16">
      <stop offset="0%"   stop-color="#4c3c28"/>
      <stop offset="60%"  stop-color="#2e2418"/>
      <stop offset="100%" stop-color="#1c160e"/>
    </linearGradient>
    <linearGradient id="bL" gradientUnits="userSpaceOnUse" x1="-88" y1="4" x2="0" y2="16">
      <stop offset="0%"   stop-color="#1a1008"/>
      <stop offset="100%" stop-color="#0e0a04"/>
    </linearGradient>
    <linearGradient id="bT" gradientUnits="userSpaceOnUse" x1="0" y1="-72" x2="0" y2="16">
      <stop offset="0%"   stop-color="#5e4c30"/>
      <stop offset="100%" stop-color="#3a2e1c"/>
    </linearGradient>

    <filter id="glow" x="-60%" y="-60%" width="220%" height="220%">
      <feGaussianBlur stdDeviation="3" result="blur"/>
      <feMerge><feMergeNode in="blur"/><feMergeNode in="SourceGraphic"/></feMerge>
    </filter>
    <filter id="softglow" x="-80%" y="-80%" width="260%" height="260%">
      <feGaussianBlur stdDeviation="5" result="blur"/>
      <feMerge><feMergeNode in="blur"/><feMergeNode in="SourceGraphic"/></feMerge>
    </filter>
  </defs>

  <!-- ══ FOUNDATION hz 0→24 (±128) ══ -->
  <polygon points="-128,64 0,128 0,104 -128,40"  fill="url(#fL)" stroke="#3a2808" stroke-width="1.5"/>
  <polygon points="128,64 0,128 0,104 128,40"    fill="url(#fR)" stroke="#4c3810" stroke-width="1.5"/>
  <polygon points="0,-24 128,40 0,104 -128,40"   fill="url(#fT)" stroke="#4c3810" stroke-width="1.5"/>

  <g transform="translate(0, 36)">
  <!-- ══ SOCKEL (Base Unit) – identisch zu T1 ══ -->
  <polygon points="-88,4 0,48 0,16 -88,-28"   fill="url(#bL)" stroke="#1e1408" stroke-width="1.5"/>
  <polygon points="88,4 0,48 0,16 88,-28"     fill="url(#bR)" stroke="#4c3c28" stroke-width="1.5"/>
  <polygon points="0,-72 88,-28 0,16 -88,-28"  fill="url(#bT)" stroke="#4c3c28" stroke-width="1.5"/>
  <!-- 3 Diagonalstriche rechte Fläche -->
  <line x1="66"  y1="7"  x2="22"  y2="29"  stroke="#a87020" stroke-width="1.5" opacity="0.45"/>
  <line x1="66"  y1="-1" x2="22"  y2="21"  stroke="#a87020" stroke-width="1.5" opacity="0.45"/>
  <line x1="66"  y1="-9" x2="22"  y2="13"  stroke="#a87020" stroke-width="1.5" opacity="0.45"/>
  <!-- Eckkante links -->
  <line x1="-88" y1="4"  x2="-88" y2="-28" stroke="#201408" stroke-width="2"   opacity="0.5"/>
  <!-- 3 Diagonalstriche linke Fläche (gedimmt) -->
  <line x1="-66" y1="7"  x2="-22" y2="29"  stroke="#6a4010" stroke-width="1.5" opacity="0.35"/>
  <line x1="-66" y1="-1" x2="-22" y2="21"  stroke="#6a4010" stroke-width="1.5" opacity="0.35"/>
  <line x1="-66" y1="-9" x2="-22" y2="13"  stroke="#6a4010" stroke-width="1.5" opacity="0.35"/>
  <!-- Sockel-Eckknoten -->
  <circle cx="88"  cy="-28" r="5" fill="#f0b030" filter="url(#glow)"/>
  <circle cx="-88" cy="-28" r="5" fill="#f0b030" filter="url(#glow)" opacity="0.55"/>
  <circle cx="0"   cy="16"  r="5" fill="#f0b030" filter="url(#glow)"/>

  </g>
</svg>
