<?xml version="1.0" encoding="UTF-8"?>
<!--
  Research Building – Einzelturm mit Spire (Master SVG, 4× tile resolution)

  GEOMETRIE (local = innerhalb translate(0,36)):
  ─ Basisplatte-Diamant: N(0,−72) E(88,−28) S(0,16) W(−88,−28)
  ─ Sockel-Zentrum (top face center): (0,−28)
  ─ Turm: cx=0  center_y=−28  w=14  h=72
      left face:  (−14,−28) (0,−21) (0,−93) (−14,−100)
      right face: (  14,−28) (0,−21) (0,−93) ( 14,−100)
      top face:   (0,−107) (14,−100) (0,−93) (−14,−100)
  ─ Spire-Basis: (0,−100)  Spire-Spitze: (0,−158)
-->
<svg xmlns="http://www.w3.org/2000/svg"
     viewBox="-128 -178 256 308"
     width="256" height="308">
  <defs>
    <!-- Foundation: warm dark amber-brown -->
    <linearGradient id="fR" gradientUnits="userSpaceOnUse" x1="128" y1="40" x2="0" y2="104">
      <stop offset="0%"   stop-color="#4c3010"/>
      <stop offset="100%" stop-color="#241808"/>
    </linearGradient>
    <linearGradient id="fL" gradientUnits="userSpaceOnUse" x1="-128" y1="40" x2="0" y2="104">
      <stop offset="0%"   stop-color="#1c1208"/>
      <stop offset="100%" stop-color="#0e0a04"/>
    </linearGradient>
    <linearGradient id="fT" gradientUnits="userSpaceOnUse" x1="0" y1="-24" x2="0" y2="104">
      <stop offset="0%"   stop-color="#5c4018"/>
      <stop offset="100%" stop-color="#3a2a0e"/>
    </linearGradient>
    <!-- Base unit (Sockel) -->
    <linearGradient id="bR" gradientUnits="userSpaceOnUse" x1="88" y1="4" x2="0" y2="16">
      <stop offset="0%"   stop-color="#4c3c28"/>
      <stop offset="60%"  stop-color="#2e2418"/>
      <stop offset="100%" stop-color="#1c160e"/>
    </linearGradient>
    <linearGradient id="bL" gradientUnits="userSpaceOnUse" x1="-88" y1="4" x2="0" y2="16">
      <stop offset="0%"   stop-color="#1a1008"/>
      <stop offset="100%" stop-color="#0e0a04"/>
    </linearGradient>
    <linearGradient id="bT" gradientUnits="userSpaceOnUse" x1="0" y1="-72" x2="0" y2="16">
      <stop offset="0%"   stop-color="#5e4c30"/>
      <stop offset="100%" stop-color="#3a2e1c"/>
    </linearGradient>
    <!-- Tower right face -->
    <linearGradient id="cyR" x1="0" y1="0.5" x2="1" y2="0.5">
      <stop offset="0%"   stop-color="#504030"/>
      <stop offset="100%" stop-color="#7e6a50"/>
    </linearGradient>
    <!-- Tower left face -->
    <linearGradient id="cyL" x1="0" y1="0.5" x2="1" y2="0.5">
      <stop offset="0%"   stop-color="#120e06"/>
      <stop offset="100%" stop-color="#1c1408"/>
    </linearGradient>
    <!-- Tower top face -->
    <linearGradient id="cyTop" x1="0" y1="0" x2="1" y2="1">
      <stop offset="0%"   stop-color="#9a8868"/>
      <stop offset="100%" stop-color="#685848"/>
    </linearGradient>

    <filter id="glow" x="-60%" y="-60%" width="220%" height="220%">
      <feGaussianBlur stdDeviation="3" result="blur"/>
      <feMerge><feMergeNode in="blur"/><feMergeNode in="SourceGraphic"/></feMerge>
    </filter>
    <filter id="softglow" x="-80%" y="-80%" width="260%" height="260%">
      <feGaussianBlur stdDeviation="5" result="blur"/>
      <feMerge><feMergeNode in="blur"/><feMergeNode in="SourceGraphic"/></feMerge>
    </filter>
  </defs>

  <!-- ══ FOUNDATION hz 0→24 (±128) ══ -->
  <polygon points="-128,64 0,128 0,104 -128,40"  fill="url(#fL)" stroke="#3a2808" stroke-width="1.5"/>
  <polygon points="128,64 0,128 0,104 128,40"    fill="url(#fR)" stroke="#4c3810" stroke-width="1.5"/>
  <polygon points="0,-24 128,40 0,104 -128,40"   fill="url(#fT)" stroke="#4c3810" stroke-width="1.5"/>

  <g transform="translate(0, 36)">
  <!-- ══ SOCKEL (Base Unit) – identische Abmaße wie Consumer ══ -->
  <polygon points="-88,4 0,48 0,16 -88,-28"   fill="url(#bL)" stroke="#1e1408" stroke-width="1.5"/>
  <polygon points="88,4 0,48 0,16 88,-28"     fill="url(#bR)" stroke="#4c3c28" stroke-width="1.5"/>
  <polygon points="0,-72 88,-28 0,16 -88,-28"  fill="url(#bT)" stroke="#4c3c28" stroke-width="1.5"/>
  <!-- Eckkante rechts -->
  <line x1="88"  y1="4"  x2="88"  y2="-28" stroke="#d49010" stroke-width="2"   opacity="0.5"/>
  <!-- 3 Diagonalstriche rechte Fläche -->
  <line x1="66"  y1="7"  x2="22"  y2="29"  stroke="#a87020" stroke-width="1.5" opacity="0.45"/>
  <line x1="66"  y1="-1" x2="22"  y2="21"  stroke="#a87020" stroke-width="1.5" opacity="0.45"/>
  <line x1="66"  y1="-9" x2="22"  y2="13"  stroke="#a87020" stroke-width="1.5" opacity="0.45"/>
  <!-- Eckkante links -->
  <line x1="-88" y1="4"  x2="-88" y2="-28" stroke="#201408" stroke-width="2"   opacity="0.5"/>
  <!-- 3 Diagonalstriche linke Fläche (gedimmt) -->
  <line x1="-66" y1="7"  x2="-22" y2="29"  stroke="#6a4010" stroke-width="1.5" opacity="0.35"/>
  <line x1="-66" y1="-1" x2="-22" y2="21"  stroke="#6a4010" stroke-width="1.5" opacity="0.35"/>
  <line x1="-66" y1="-9" x2="-22" y2="13"  stroke="#6a4010" stroke-width="1.5" opacity="0.35"/>
  <!-- Sockel-Eckknoten -->
  <circle cx="88"  cy="-28" r="5" fill="#f0b030" filter="url(#glow)"/>
  <circle cx="-88" cy="-28" r="5" fill="#f0b030" filter="url(#glow)" opacity="0.55"/>
  <circle cx="0"   cy="16"  r="5" fill="#f0b030" filter="url(#glow)"/>

  <!-- ══ ZENTRALER TURM – mittig auf Sockel-Deckfläche (0,−28) ══ -->
  <!-- left face (shadow) -->
  <polygon points="-14,-28 0,-21 0,-93 -14,-100" fill="url(#cyL)" stroke="#120e06" stroke-width="1.2"/>
  <!-- right face (lit) -->
  <polygon points="14,-28 0,-21 0,-93 14,-100"   fill="url(#cyR)" stroke="#6a5840" stroke-width="1.2"/>
  <!-- right edge highlight -->
  <line x1="14" y1="-28" x2="14" y2="-100" stroke="#9a8268" stroke-width="1.5" opacity="0.55"/>
  <!-- isometric band at tower midpoint: left (shaded) + right (lit), slope ±0.5 -->
  <line x1="-14" y1="-64" x2="0" y2="-57" stroke="#7a3808" stroke-width="1.5" opacity="0.7"/>
  <line x1="14"  y1="-64" x2="0" y2="-57" stroke="#d49010" stroke-width="1.5" opacity="0.85"/>
  <!-- top face -->
  <polygon points="0,-107 14,-100 0,-93 -14,-100" fill="url(#cyTop)" stroke="#6a5840" stroke-width="1.2"/>
  <!-- top glow node -->
  <circle cx="0" cy="-100" r="4.5" fill="#f0b030" opacity="0.85" filter="url(#glow)"/>
  <circle cx="0" cy="-100" r="8"   fill="none"    stroke="#f0b030" stroke-width="1.2" opacity="0.3"/>

  <!-- ══ SPIRE ══ -->
  <line x1="0" y1="-100" x2="0" y2="-158" stroke="#b07810" stroke-width="2.5"/>
  <line x1="0" y1="-100" x2="0" y2="-158" stroke="#f0c040" stroke-width="1"   opacity="0.52"/>
  <line x1="-13" y1="-146" x2="13" y2="-146" stroke="#d49010" stroke-width="2"/>
  <line x1="-7"  y1="-134" x2="7"  y2="-134" stroke="#d49010" stroke-width="1.5"/>
  <circle cx="0" cy="-158" r="9"  fill="#f0c040" opacity="0.12" filter="url(#softglow)"/>
  <circle cx="0" cy="-158" r="5"  fill="#f0c040" opacity="0.88" filter="url(#glow)"/>
  <circle cx="0" cy="-158" r="2"  fill="#ffffff"/>

  </g>
</svg>
