<?xml version="1.0" encoding="UTF-8"?>
<!--
  QuantumFab – Industry Building (Master SVG, 4× tile resolution)
  High-Tech Fertigungsanlage: Silber/Platin + violette Energieleitungen + Reaktorkern
-->
<svg xmlns="http://www.w3.org/2000/svg"
     viewBox="-128 -178 256 308"
     width="256" height="308">
  <defs>
    <!-- Foundation: very dark gunmetal -->
    <linearGradient id="fR" gradientUnits="userSpaceOnUse" x1="128" y1="40" x2="0" y2="104">
      <stop offset="0%"   stop-color="#3c3c44"/>
      <stop offset="100%" stop-color="#1c1c22"/>
    </linearGradient>
    <linearGradient id="fL" gradientUnits="userSpaceOnUse" x1="-128" y1="40" x2="0" y2="104">
      <stop offset="0%"   stop-color="#14141a"/>
      <stop offset="100%" stop-color="#080810"/>
    </linearGradient>
    <linearGradient id="fT" gradientUnits="userSpaceOnUse" x1="0" y1="-24" x2="0" y2="104">
      <stop offset="0%"   stop-color="#4e4e58"/>
      <stop offset="100%" stop-color="#2c2c34"/>
    </linearGradient>
    <!-- Lower block: silver-platinum -->
    <linearGradient id="lR" gradientUnits="userSpaceOnUse" x1="88" y1="0" x2="0" y2="-56">
      <stop offset="0%"   stop-color="#c0c4cc"/>
      <stop offset="40%"  stop-color="#909098"/>
      <stop offset="100%" stop-color="#606068"/>
    </linearGradient>
    <linearGradient id="lL" gradientUnits="userSpaceOnUse" x1="-88" y1="0" x2="0" y2="-56">
      <stop offset="0%"   stop-color="#282830"/>
      <stop offset="100%" stop-color="#141418"/>
    </linearGradient>
    <linearGradient id="lT" gradientUnits="userSpaceOnUse" x1="0" y1="-80" x2="0" y2="-24">
      <stop offset="0%"   stop-color="#d8dce4"/>
      <stop offset="100%" stop-color="#a0a4ac"/>
    </linearGradient>
    <!-- Upper block: lighter platinum -->
    <linearGradient id="uR" gradientUnits="userSpaceOnUse" x1="56" y1="-44" x2="0" y2="-100">
      <stop offset="0%"   stop-color="#d4d8e0"/>
      <stop offset="40%"  stop-color="#a8acb4"/>
      <stop offset="100%" stop-color="#78788a"/>
    </linearGradient>
    <linearGradient id="uL" gradientUnits="userSpaceOnUse" x1="-56" y1="-44" x2="0" y2="-100">
      <stop offset="0%"   stop-color="#303038"/>
      <stop offset="100%" stop-color="#18181e"/>
    </linearGradient>
    <linearGradient id="uT" gradientUnits="userSpaceOnUse" x1="0" y1="-128" x2="0" y2="-72">
      <stop offset="0%"   stop-color="#e8eaf0"/>
      <stop offset="100%" stop-color="#b8bac4"/>
    </linearGradient>
    <!-- Reactor panel: glowing core visible through glass -->
    <radialGradient id="reactor" cx="40%" cy="35%" r="65%">
      <stop offset="0%"   stop-color="#ffffff"/>
      <stop offset="20%"  stop-color="#cc88ff"/>
      <stop offset="55%"  stop-color="#7722cc"/>
      <stop offset="85%"  stop-color="#330066"/>
      <stop offset="100%" stop-color="#110022"/>
    </radialGradient>
    <!-- Reactor panel (shadow side, dim) -->
    <radialGradient id="reactorDim" cx="40%" cy="35%" r="65%">
      <stop offset="0%"   stop-color="#553388"/>
      <stop offset="25%"  stop-color="#442266"/>
      <stop offset="60%"  stop-color="#220044"/>
      <stop offset="90%"  stop-color="#110022"/>
      <stop offset="100%" stop-color="#06000c"/>
    </radialGradient>
    <!-- Energy conduit glow -->
    <linearGradient id="conduit" gradientUnits="userSpaceOnUse" x1="0" y1="0" x2="0" y2="-130">
      <stop offset="0%"   stop-color="#cc44ff"/>
      <stop offset="50%"  stop-color="#8822cc"/>
      <stop offset="100%" stop-color="#441188"/>
    </linearGradient>

    <filter id="glow" x="-60%" y="-60%" width="220%" height="220%">
      <feGaussianBlur stdDeviation="3" result="blur"/>
      <feMerge><feMergeNode in="blur"/><feMergeNode in="SourceGraphic"/></feMerge>
    </filter>
    <filter id="coreglow" x="-80%" y="-80%" width="260%" height="260%">
      <feGaussianBlur stdDeviation="5" result="blur"/>
      <feMerge><feMergeNode in="blur"/><feMergeNode in="SourceGraphic"/></feMerge>
    </filter>
    <filter id="softglow" x="-80%" y="-80%" width="260%" height="260%">
      <feGaussianBlur stdDeviation="6" result="blur"/>
      <feMerge><feMergeNode in="blur"/><feMergeNode in="SourceGraphic"/></feMerge>
    </filter>
  </defs>

  <!-- ══ FOUNDATION hz 0→24 (±128) ══ -->
  <polygon points="-128,64 0,128 0,104 -128,40"  fill="url(#fL)" stroke="#3a3a44" stroke-width="1.5"/>
  <polygon points="128,64 0,128 0,104 128,40"    fill="url(#fR)" stroke="#4e4e5a" stroke-width="1.5"/>
  <polygon points="0,-24 128,40 0,104 -128,40"   fill="url(#fT)" stroke="#4e4e5a" stroke-width="1.5"/>

  <!-- ══ LOWER BLOCK hz 24→80 (±88) ══
       Centered on tile axis via translate(0, 20) -->
  <g transform="translate(0, 20)">
  <polygon points="-88,20 0,64 0,8 -88,-36"   fill="url(#lL)" stroke="#2a2a34" stroke-width="1.5"/>
  <line x1="-88" y1="20" x2="-88" y2="-36" stroke="#181820" stroke-width="3" opacity="0.6"/>

  <!-- Left face: REACTOR GLASS PANEL (dim shadow mirror) -->
  <polygon points="-72.7,17.7 -44.7,31.7 -44.7,-4.4 -72.7,-18.4"    fill="#06000c" stroke="#2a1144" stroke-width="2"/>
  <polygon points="-70.7,15.7 -46.7,29.7 -46.7,-2.4 -70.7,-16.4"    fill="url(#reactorDim)" opacity="0.85"/>
  <!-- Left face: tech panels above reactor (dim mirror) -->
  <polygon points="-29.3,28.9 -15.3,35.9 -15.3,20.9 -29.3,13.9"   fill="#0a0814" stroke="#221144" stroke-width="1"/>
  <circle cx="-22.3" cy="28.4" r="2.5" fill="#553388" opacity="0.6"/>
  <circle cx="-22.3" cy="20.9"   r="2.5" fill="#3a1a5a" opacity="0.5"/>

  <polygon points="88,20 0,64 0,8 88,-36"     fill="url(#lR)" stroke="#9898a8" stroke-width="1.5"/>
  <line x1="88" y1="20" x2="88" y2="-36" stroke="#d0d0e0" stroke-width="3" opacity="0.65"/>

  <!-- Right face: REACTOR GLASS PANEL (main feature) -->
  <polygon points="72.7,17.7 44.7,31.7 44.7,-4.4 72.7,-18.4"    fill="#0a0014" stroke="#6622aa" stroke-width="2"/>
  <polygon points="70.7,15.7 46.7,29.7 46.7,-2.4 70.7,-16.4"    fill="url(#reactor)" opacity="0.9"/>
  <!-- Reactor glow bloom -->
  <polygon points="72.7,17.7 44.7,31.7 44.7,-4.4 72.7,-18.4"    fill="#cc44ff" opacity="0.08" filter="url(#coreglow)"/>
  <!-- Right face: tech panels above reactor -->
  <polygon points="29.3,28.9 15.3,35.9 15.3,20.9 29.3,13.9"   fill="#1a1428" stroke="#553388" stroke-width="1"/>
  <circle cx="22.3" cy="28.4" r="2.5" fill="#cc44ff" filter="url(#glow)"/>
  <circle cx="22.3" cy="20.9"   r="2.5" fill="#aa44ff" opacity="0.7"/>

  <!-- Lower block top face -->
  <polygon points="0,-80 88,-36 0,8 -88,-36"    fill="url(#lT)" stroke="#9898a8" stroke-width="1.5"/>
  <line x1="0" y1="-80" x2="0" y2="8"       stroke="#cc44ff" stroke-width="1" opacity="0.3"/>
  <line x1="-88" y1="-36" x2="88" y2="-36"  stroke="#cc44ff" stroke-width="1" opacity="0.3"/>

  <circle cx="88"  cy="-36" r="5" fill="#cc44ff" filter="url(#glow)"/>
  <circle cx="-88" cy="-36" r="5" fill="#cc44ff" filter="url(#glow)" opacity="0.6"/>
  <circle cx="0"   cy="8"   r="5" fill="#cc44ff" filter="url(#glow)"/>

  </g>

  <!-- ══ UPPER BLOCK hz 80→128 (±56) ══
       Centered on tile axis via translate(0, 28) -->
  <g transform="translate(0, 28)">
  <polygon points="-56,-44 0,-16 0,-72 -56,-100"  fill="url(#uL)" stroke="#202028" stroke-width="1.5"/>
  <line x1="-56" y1="-44" x2="-56" y2="-100" stroke="#181820" stroke-width="2.5" opacity="0.55"/>

  <!-- Upper left: precision windows (dim mirror) -->
  <polygon points="-46.67,-53.33 -30.67,-45.33 -30.67,-59.33 -46.67,-67.33"  fill="#06000c" stroke="#2a1144" stroke-width="1.5"/>
  <polygon points="-44.67,-55.33 -32.67,-47.33 -32.67,-57.33 -44.67,-65.33"  fill="url(#reactorDim)" opacity="0.8"/>
  <polygon points="-46.67,-53.33 -30.67,-45.33 -30.67,-59.33 -46.67,-67.33"  fill="#cc44ff" opacity="0.04" filter="url(#coreglow)"/>

  <polygon points="-21.33,-40.67 -9.33,-34.67 -9.33,-48.67 -21.33,-54.67"    fill="#06000f" stroke="#2a1144" stroke-width="1.5"/>
  <circle cx="-15.33" cy="-44.67" r="3" fill="#553388" opacity="0.55"/>

  <polygon points="56,-44 0,-16 0,-72 56,-100"   fill="url(#uR)" stroke="#b0b0c4" stroke-width="1.5"/>
  <line x1="56" y1="-44" x2="56" y2="-100" stroke="#d8d8e8" stroke-width="2.5" opacity="0.65"/>

  <!-- Upper right: precision windows (data readouts) -->
  <polygon points="46.67,-53.33 30.67,-45.33 30.67,-59.33 46.67,-67.33"  fill="#0a0014" stroke="#6622aa" stroke-width="1.5"/>
  <polygon points="44.67,-55.33 32.67,-47.33 32.67,-57.33 44.67,-65.33"  fill="url(#reactor)" opacity="0.85"/>
  <polygon points="46.67,-53.33 30.67,-45.33 30.67,-59.33 46.67,-67.33"  fill="#cc44ff" opacity="0.06" filter="url(#coreglow)"/>

  <polygon points="21.33,-40.67 9.33,-34.67 9.33,-48.67 21.33,-54.67"    fill="#0a0018" stroke="#5522aa" stroke-width="1.5"/>
  <circle cx="15.33" cy="-44.67" r="3" fill="#bb44ff" filter="url(#glow)"/>

  <!-- Energy ring band at hz=112 -->
  <polyline points="56,-86 0,-58 -56,-86"   stroke="#cc44ff" stroke-width="2"   fill="none" opacity="0.55"/>

  <!-- Upper block top face -->
  <polygon points="0,-128 56,-100 0,-72 -56,-100"  fill="url(#uT)" stroke="#b0b0c4" stroke-width="1.5"/>
  <line x1="0" y1="-128" x2="0" y2="-72"      stroke="#cc44ff" stroke-width="1" opacity="0.3"/>
  <line x1="-56" y1="-100" x2="56" y2="-100"  stroke="#cc44ff" stroke-width="1" opacity="0.3"/>

  <circle cx="56"  cy="-100" r="5" fill="#cc44ff" filter="url(#glow)"/>
  <circle cx="-56" cy="-100" r="5" fill="#cc44ff" filter="url(#glow)" opacity="0.6"/>
  <circle cx="0"   cy="-72"  r="5" fill="#cc44ff" filter="url(#glow)"/>

  <!-- ══ ROOFTOP: QUANTUM EMITTER ARRAY ══
       (translate(0, 28) centers emitter on top face centroid at y=−100) -->
  <g transform="translate(0, 28)">
  <!-- Central emitter ring -->
  <ellipse cx="0" cy="-128" rx="26" ry="13" fill="none" stroke="#cc44ff" stroke-width="2"   opacity="0.7"/>
  <ellipse cx="0" cy="-128" rx="26" ry="13" fill="none" stroke="#ff88ff" stroke-width="5"   opacity="0.15" filter="url(#softglow)"/>
  <ellipse cx="0" cy="-128" rx="12" ry="6"  fill="none" stroke="#cc44ff" stroke-width="1.5" opacity="0.55"/>

  <!-- Emitter node at center -->
  <circle cx="0" cy="-128" r="6"  fill="#cc44ff" opacity="0.9" filter="url(#glow)"/>
  <circle cx="0" cy="-128" r="12" fill="#cc44ff" opacity="0.1" filter="url(#softglow)"/>

  <!-- Energy spire -->
  <line x1="0" y1="-134" x2="0" y2="-174" stroke="#aa33dd" stroke-width="2.5"/>
  <line x1="0" y1="-134" x2="0" y2="-174" stroke="#ff88ff" stroke-width="1"   opacity="0.7"/>

  <!-- Cross bars on spire -->
  <line x1="-14" y1="-162" x2="14" y2="-162" stroke="#cc44ff" stroke-width="2"/>
  <line x1="-8"  y1="-150" x2="8"  y2="-150" stroke="#cc44ff" stroke-width="1.5"/>

  <!-- Apex glow layers -->
  <circle cx="0" cy="-174" r="10" fill="#cc44ff" opacity="0.12" filter="url(#softglow)"/>
  <circle cx="0" cy="-174" r="5"  fill="#cc44ff" opacity="0.7"  filter="url(#glow)"/>
  <circle cx="0" cy="-174" r="2.5" fill="#ffffff"/>

  </g>
  </g>
</svg>
